<svg xmlns="http://www.w3.org/2000/svg" xmlns:xlink="http://www.w3.org/1999/xlink" version="1.1" id="Layer_1" x="0px" y="0px" viewBox="0 0 1000 1000" enable-background="new 0 0 1000 1000" xml:space="preserve" width="100%" height="100%" ><rect id="svgEditorBackground" x="0" y="0" width="1000" height="1000" style="fill: none; stroke: none;"/>
<path d="M902.5,497c0,-135.7,148.0999999999999,-33,79.20000000000005,-199.5c-69,-166.5,-101.10000000000002,10.800000000000011,-197.10000000000002,-85.1c-96,-96,81.39999999999998,-128.1,-85.10000000000002,-197c-166.5,-69,-63.799999999999955,79,-199.5,79c-135.7,0,-33,-148.1,-199.5,-79.1c-166.5,69,10.800000000000011,101,-85.1,197c-96,96,-128.1,-81.30000000000001,-197,85.09999999999997c-69.10000000000001,166.60000000000002,79,63.900000000000034,79,199.60000000000002s-148.1,33,-79.1,199.5c69,166.5,101.1,-10.799999999999955,197,85.10000000000002c96,96,-81.4,128.10000000000002,85.09999999999997,197.10000000000002c166.5,69,63.80000000000001,-79.10000000000002,199.5,-79.10000000000002c135.69999999999993,0,33,148.10000000000002,199.5,79.10000000000002c166.5,-69,-10.899999999999977,-101.10000000000002,85.10000000000002,-197.10000000000002c96,-95.89999999999998,128.10000000000002,81.39999999999998,197.10000000000002,-85.10000000000002c69.10000000000002,-166.5,-79.10000000000002,-63.799999999999955,-79.10000000000002,-199.5ZM500.6,743c-135.5,0,-245.4,-109.89999999999998,-245.4,-245.39999999999998c0,-135.5,109.9,-245.4,245.4,-245.4s245.39999999999998,109.9,245.39999999999998,245.4c0,135.5,-109.89999999999998,245.39999999999998,-245.39999999999998,245.39999999999998Z" fill="#555"/>
</svg>