<?xml version="1.0" encoding="utf-8"?>
<!-- Generator: Adobe Illustrator 19.1.0, SVG Export Plug-In . SVG Version: 6.00 Build 0)  -->
<svg version="1.1" id="Layer_1" xmlns="http://www.w3.org/2000/svg" xmlns:xlink="http://www.w3.org/1999/xlink" x="0px" y="0px"
	 viewBox="0 0 1000 1000" enable-background="new 0 0 1000 1000" xml:space="preserve">
<path d="M902.5,497c0-135.7,148.1-33,79.2-199.5c-69-166.5-101.1,10.8-197.1-85.1c-96-96,81.4-128.1-85.1-197
	C533-53.6,635.7,94.4,500,94.4c-135.7,0-33-148.1-199.5-79.1c-166.5,69,10.8,101-85.1,197c-96,96-128.1-81.3-197,85.1
	C-50.7,464,97.4,361.3,97.4,497s-148.1,33-79.1,199.5c69,166.5,101.1-10.8,197,85.1c96,96-81.4,128.1,85.1,197.1
	c166.5,69,63.8-79.1,199.5-79.1c135.7,0,33,148.1,199.5,79.1c166.5-69-10.9-101.1,85.1-197.1c96-95.9,128.1,81.4,197.1-85.1
	C1050.7,530,902.5,632.7,902.5,497z M500.6,743c-135.5,0-245.4-109.9-245.4-245.4c0-135.5,109.9-245.4,245.4-245.4
	S746,362.1,746,497.6C746,633.1,636.1,743,500.6,743z"/>
</svg>
